<svg viewBox="0 0 36 36" xmlns="http://www.w3.org/2000/svg" xmlns:xlink="http://www.w3.org/1999/xlink" width="36.000000" height="36.000000" fill="none" customFrame="#000000">
	<defs>
		<clipPath id="clipPath_13">
			<rect width="24.000000" height="24.000000" x="6.000000" y="6.000000" fill="rgb(255,255,255)" />
		</clipPath>
	</defs>
	<g id="Group 3820">
		<circle id="Ellipse 206" cx="18" cy="18" r="18" fill="rgb(119,140,235)" />
		<g id="call 1" clip-path="url(#clipPath_13)" customFrame="url(#clipPath_13)">
			<rect id="call 1" width="24.000000" height="24.000000" x="6.000000" y="6.000000" fill="rgb(255,255,255)" fill-opacity="0" />
			<path id="Vector" d="M23.7194 20.0534C23.3042 19.7192 22.7931 19.5264 22.2606 19.5032C21.7281 19.48 21.2021 19.6276 20.7594 19.9244L19.2504 20.9304C17.9872 20.6415 16.8312 20.0022 15.9149 19.0859C14.9987 18.1697 14.3594 17.0136 14.0704 15.7504L15.0764 14.2414C15.3732 13.7988 15.5208 13.2728 15.4976 12.7403C15.4744 12.2078 15.2816 11.6966 14.9474 11.2814L13.7184 9.74444C13.4704 9.4344 13.1528 9.18721 12.7914 9.02298C12.4299 8.85874 12.0349 8.78208 11.6382 8.79923C11.2416 8.81638 10.8546 8.92685 10.5087 9.12167C10.1628 9.31648 9.86767 9.59015 9.64739 9.92044L8.66139 11.4004C8.19786 12.0944 7.91013 12.8907 7.82302 13.7207C7.73591 14.5507 7.85204 15.3894 8.16139 16.1644C9.12935 18.571 10.574 20.7569 12.4085 22.5907C14.243 24.4245 16.4295 25.8684 18.8364 26.8354C19.6115 27.1448 20.4502 27.2609 21.2801 27.1738C22.1101 27.0867 22.9064 26.799 23.6004 26.3354L25.0804 25.3494C25.4107 25.1292 25.6844 24.8341 25.8792 24.4882C26.074 24.1422 26.1845 23.7552 26.2016 23.3586C26.2188 22.962 26.1421 22.5669 25.9779 22.2054C25.8136 21.844 25.5664 21.5264 25.2564 21.2784L23.7194 20.0534ZM24.5254 24.5214L23.0454 25.5074C22.4863 25.8805 21.8448 26.1119 21.1763 26.1816C20.5078 26.2512 19.8324 26.1572 19.2084 25.9074C16.9277 24.9902 14.856 23.6213 13.1178 21.8831C11.3795 20.1448 10.0106 18.0731 9.09339 15.7924C8.84376 15.1684 8.74972 14.493 8.81941 13.8245C8.8891 13.156 9.12042 12.5146 9.49339 11.9554L10.4794 10.4754C10.6111 10.2753 10.7887 10.1094 10.9974 9.99167C11.2061 9.87392 11.4399 9.80768 11.6794 9.79844L11.7484 9.79844C11.9767 9.79771 12.2023 9.84892 12.4079 9.94819C12.6136 10.0475 12.7939 10.1922 12.9354 10.3714L14.1664 11.9064C14.3682 12.1559 14.4846 12.4635 14.4987 12.7841C14.5127 13.1047 14.4236 13.4213 14.2444 13.6874L13.1214 15.3714C13.0848 15.4261 13.0593 15.4874 13.0464 15.552C13.0336 15.6165 13.0335 15.6829 13.0464 15.7474C13.3503 17.2803 14.1025 18.6884 15.2075 19.7934C16.3124 20.8984 17.7206 21.6505 19.2534 21.9544C19.3179 21.9673 19.3843 21.9673 19.4489 21.9544C19.5134 21.9415 19.5747 21.9161 19.6294 21.8794L21.3134 20.7564C21.5796 20.5772 21.8962 20.4881 22.2167 20.5022C22.5373 20.5162 22.8449 20.6327 23.0944 20.8344L24.6314 22.0634C24.8186 22.2131 24.9679 22.4049 25.067 22.6231C25.1662 22.8413 25.2125 23.0799 25.2022 23.3193C25.1919 23.5588 25.1252 23.7925 25.0076 24.0014C24.89 24.2102 24.7248 24.3884 24.5254 24.5214Z" fill="rgb(255,255,255)" fill-rule="nonzero" />
			<path id="Vector" d="M22.7339 19.1597C22.5844 19.129 22.4324 19.1103 22.278 19.1036C22.1236 19.0969 21.9706 19.1023 21.819 19.1198C21.6674 19.1373 21.5171 19.1669 21.3682 19.2087C21.2195 19.2504 21.0758 19.3032 20.9373 19.3671C20.7986 19.4311 20.6651 19.5061 20.5366 19.5922L19.1743 20.5004C18.9344 20.439 18.6996 20.3644 18.4699 20.2766C18.1877 20.1687 17.9131 20.041 17.6461 19.8934C17.3791 19.7457 17.125 19.581 16.8836 19.3993C16.6422 19.2176 16.4136 19.0189 16.1978 18.8031C15.982 18.5873 15.7833 18.3587 15.6015 18.1173C15.4198 17.8759 15.2551 17.6217 15.1075 17.3547C14.9598 17.0877 14.8321 16.8131 14.7242 16.5309C14.6364 16.3012 14.5618 16.0664 14.5004 15.8266L15.4092 14.4633C15.4911 14.3412 15.563 14.2143 15.6248 14.0828C15.6927 13.9384 15.7485 13.7883 15.7922 13.6326C15.8339 13.4838 15.8635 13.3336 15.8811 13.182C15.8986 13.0303 15.904 12.8773 15.8972 12.7229C15.8905 12.5684 15.8718 12.4165 15.8412 12.267C15.8106 12.1174 15.768 11.9703 15.7134 11.8257C15.6589 11.6811 15.5937 11.5425 15.518 11.41C15.4423 11.2775 15.3559 11.151 15.259 11.0306L14.0308 9.49464C13.8851 9.31243 13.7227 9.15165 13.5436 9.0123C13.3647 8.87307 13.1691 8.75524 12.9569 8.65881C12.7445 8.56234 12.5271 8.4925 12.3044 8.4493C12.0818 8.4061 11.8539 8.38953 11.6209 8.3996C11.388 8.40968 11.1624 8.44584 10.9443 8.5081C10.7262 8.57035 10.5156 8.6587 10.3124 8.77314C10.1092 8.88758 9.92444 9.02191 9.75814 9.17614C9.59185 9.33037 9.44401 9.50449 9.31461 9.6985L8.3285 11.1787C8.07582 11.557 7.87428 11.9538 7.72388 12.3691C7.57256 12.787 7.473 13.2236 7.42521 13.6789C7.37756 14.1329 7.38413 14.5794 7.44491 15.0184C7.50569 15.4573 7.62068 15.8888 7.78989 16.3127C8.04362 16.9435 8.3284 17.558 8.64422 18.156C8.94367 18.723 9.27103 19.2753 9.6263 19.8129C9.99124 20.3651 10.382 20.8962 10.7985 21.4063C11.2151 21.9165 11.6575 22.4056 12.1257 22.8736C12.5939 23.3415 13.083 23.7837 13.5932 24.2C14.1036 24.6165 14.635 25.0071 15.1874 25.3719C15.7405 25.7371 16.3091 26.0728 16.8932 26.3789C17.4758 26.6842 18.0738 26.9601 18.6873 27.2066C19.114 27.3769 19.5482 27.4923 19.99 27.5529C20.4266 27.6128 20.8706 27.619 21.3219 27.5716C21.7758 27.524 22.2112 27.4249 22.6279 27.2743C23.0447 27.1237 23.443 26.9216 23.8226 26.6681L25.3022 25.6823C25.4968 25.5526 25.6713 25.4042 25.8259 25.2374C25.9796 25.0714 26.1136 24.8871 26.2277 24.6844C26.3421 24.4812 26.4305 24.2706 26.4927 24.0525C26.555 23.8344 26.5912 23.6089 26.6012 23.3759C26.6113 23.1429 26.5947 22.9151 26.5515 22.6924C26.5083 22.4698 26.4385 22.2523 26.342 22.04C26.2456 21.8277 26.1277 21.632 25.9884 21.4531C25.8491 21.2741 25.6884 21.1117 25.5062 20.9661L23.9687 19.7406C23.859 19.6523 23.7441 19.5728 23.6241 19.5021C23.4817 19.4182 23.3321 19.3466 23.1751 19.2874C23.0305 19.2329 22.8834 19.1903 22.7339 19.1597ZM14.0704 15.7504L15.0764 14.2414C15.3732 13.7988 15.5208 13.2728 15.4976 12.7403C15.4744 12.2078 15.2816 11.6966 14.9474 11.2814L13.7184 9.74444C13.4704 9.4344 13.1528 9.18721 12.7914 9.02298C12.4299 8.85874 12.0349 8.78208 11.6382 8.79923C11.2416 8.81638 10.8546 8.92685 10.5087 9.12167C10.1628 9.31648 9.86767 9.59015 9.64739 9.92044L8.66139 11.4004C8.19786 12.0944 7.91013 12.8907 7.82302 13.7207C7.73591 14.5507 7.85204 15.3894 8.16139 16.1644C9.12935 18.571 10.574 20.7569 12.4085 22.5907C14.243 24.4245 16.4295 25.8684 18.8364 26.8354C19.6115 27.1448 20.4502 27.2609 21.2801 27.1738C22.1101 27.0867 22.9064 26.799 23.6004 26.3354L25.0804 25.3494C25.4107 25.1292 25.6844 24.8341 25.8792 24.4882C26.074 24.1422 26.1845 23.7552 26.2016 23.3586C26.2188 22.962 26.1421 22.5669 25.9779 22.2054C25.8136 21.844 25.5664 21.5264 25.2564 21.2784L23.7194 20.0534C23.3042 19.7192 22.7931 19.5264 22.2606 19.5032C21.7281 19.48 21.2021 19.6276 20.7594 19.9244L19.2504 20.9304C17.9872 20.6415 16.8312 20.0022 15.9149 19.0859C14.9987 18.1697 14.3594 17.0136 14.0704 15.7504ZM23.0454 25.5074L24.5254 24.5214C24.7248 24.3884 24.89 24.2102 25.0076 24.0014C25.1252 23.7925 25.1919 23.5588 25.2022 23.3193C25.2125 23.0799 25.1662 22.8413 25.067 22.6231C24.9679 22.4049 24.8186 22.2131 24.6314 22.0634L23.0944 20.8344C22.8449 20.6327 22.5373 20.5162 22.2167 20.5022C21.8962 20.4881 21.5796 20.5772 21.3134 20.7564L19.6294 21.8794C19.5747 21.9161 19.5134 21.9415 19.4489 21.9544C19.3843 21.9673 19.3179 21.9673 19.2534 21.9544C17.7206 21.6505 16.3124 20.8984 15.2075 19.7934C14.1025 18.6884 13.3503 17.2803 13.0464 15.7474C13.0335 15.6829 13.0336 15.6165 13.0464 15.552C13.0593 15.4874 13.0848 15.4261 13.1214 15.3714L14.2444 13.6874C14.4236 13.4213 14.5127 13.1047 14.4987 12.7841C14.4846 12.4635 14.3682 12.1559 14.1664 11.9064L12.9354 10.3714C12.7939 10.1922 12.6136 10.0475 12.4079 9.94819C12.2023 9.84892 11.9767 9.79771 11.7484 9.79844L11.6794 9.79844C11.4399 9.80768 11.2061 9.87392 10.9974 9.99167C10.7887 10.1094 10.6111 10.2753 10.4794 10.4754L9.49339 11.9554C9.12042 12.5146 8.8891 13.156 8.81941 13.8245C8.74972 14.493 8.84376 15.1684 9.09339 15.7924C10.0106 18.0731 11.3795 20.1448 13.1178 21.8831C14.856 23.6213 16.9277 24.9902 19.2084 25.9074C19.8324 26.1572 20.5078 26.2512 21.1763 26.1816C21.8448 26.1119 22.4863 25.8805 23.0454 25.5074ZM11.6877 10.1984L11.7484 10.1984C11.838 10.1982 11.9252 10.2081 12.0099 10.2283C12.0866 10.2466 12.1613 10.2733 12.234 10.3084C12.3105 10.3453 12.3811 10.3897 12.4456 10.4415C12.5102 10.4933 12.5688 10.5526 12.6214 10.6192L13.8543 12.1567C13.9324 12.2532 13.9919 12.3566 14.0328 12.467C14.0718 12.5722 14.0939 12.6838 14.0991 12.8016C14.1043 12.9222 14.0914 13.0378 14.0604 13.1482C14.0293 13.2586 13.98 13.3639 13.9126 13.4641L12.7886 15.1495C12.7576 15.1957 12.7313 15.244 12.7097 15.2943C12.6851 15.3515 12.6666 15.4113 12.6542 15.4737C12.6424 15.5324 12.6366 15.5911 12.6366 15.6497C12.6366 15.7083 12.6424 15.767 12.6541 15.8256C12.7334 16.2256 12.8408 16.6156 12.9762 16.9956C13.1133 17.3804 13.2791 17.755 13.4737 18.1193C13.6671 18.4814 13.8848 18.8256 14.1267 19.1518C14.3684 19.4779 14.6344 19.786 14.9246 20.0762C15.2149 20.3665 15.5231 20.6325 15.8492 20.8743C16.1754 21.1161 16.5195 21.3337 16.8815 21.5271C17.2437 21.7206 17.616 21.8856 17.9985 22.0222C18.3807 22.1588 18.7731 22.267 19.1756 22.3468C19.2327 22.3582 19.2897 22.364 19.3469 22.3643C19.4069 22.3645 19.467 22.3587 19.5271 22.3467C19.5857 22.335 19.6421 22.3179 19.6963 22.2954C19.7504 22.2729 19.8024 22.245 19.8521 22.2117L21.5353 21.0892C21.6385 21.0198 21.7469 20.9695 21.8605 20.9384C21.9687 20.9088 22.0816 20.8966 22.1992 20.9018C22.3199 20.9071 22.4338 20.93 22.5411 20.9706C22.6484 21.0112 22.749 21.0695 22.8428 21.1455L24.3816 22.3759C24.4516 22.4318 24.5133 22.4942 24.5668 22.5629C24.6204 22.6317 24.6658 22.707 24.7029 22.7886C24.74 22.8702 24.7668 22.9538 24.7834 23.0394C24.8 23.125 24.8064 23.2125 24.8026 23.3021C24.7987 23.3916 24.7848 23.4783 24.7609 23.5621C24.737 23.646 24.703 23.727 24.659 23.8051C24.6151 23.8832 24.5635 23.9542 24.5042 24.0181C24.4449 24.0821 24.378 24.1389 24.3034 24.1887L22.8236 25.1746L22.8234 25.1747C22.5671 25.3457 22.2982 25.482 22.0168 25.5835C21.7354 25.685 21.4414 25.7518 21.1348 25.7837C20.8284 25.8157 20.527 25.811 20.2308 25.7697C19.9344 25.7285 19.6432 25.6506 19.357 25.5361C18.8102 25.3162 18.2768 25.0705 17.7569 24.799C17.2168 24.5169 16.6912 24.2071 16.1802 23.8694C15.6784 23.5379 15.1958 23.1829 14.7323 22.8044C14.2693 22.4264 13.8254 22.025 13.4006 21.6002C12.9755 21.1751 12.5738 20.7308 12.1955 20.2675C11.8174 19.8043 11.4627 19.322 11.1314 18.8207C10.7999 18.3189 10.4952 17.8031 10.2172 17.2732C9.93957 16.7439 9.68867 16.2006 9.4645 15.6432C9.35093 15.3593 9.27343 15.0703 9.232 14.7762C9.19 14.478 9.18508 14.1746 9.21726 13.866C9.24921 13.5595 9.31593 13.2655 9.41741 12.9841C9.5189 12.7027 9.65514 12.4338 9.82615 12.1774L10.8123 10.6972C10.8655 10.6163 10.927 10.5445 10.9966 10.4817C11.0563 10.4278 11.1221 10.3806 11.194 10.34C11.2717 10.2962 11.3523 10.2624 11.4358 10.2388C11.517 10.2158 11.601 10.2023 11.6877 10.1984Z" fill="rgb(255,255,255)" fill-rule="evenodd" />
			<path id="Vector" d="M17.7002 13.2246C18.7808 13.2251 19.817 13.6546 20.5811 14.4187C21.3452 15.1828 21.7747 16.219 21.7752 17.2996C21.7752 17.4322 21.8279 17.5594 21.9216 17.6532C22.0154 17.7469 22.1426 17.7996 22.2752 17.7996C22.4078 17.7996 22.535 17.7469 22.6287 17.6532C22.7225 17.5594 22.7752 17.4322 22.7752 17.2996C22.7747 15.9538 22.2398 14.6633 21.2882 13.7116C20.3365 12.76 19.046 12.2251 17.7002 12.2246C17.5676 12.2246 17.4404 12.2773 17.3466 12.3711C17.2529 12.4648 17.2002 12.592 17.2002 12.7246C17.2002 12.8572 17.2529 12.9844 17.3466 13.0782C17.4404 13.1719 17.5676 13.2246 17.7002 13.2246Z" fill="rgb(255,255,255)" fill-rule="nonzero" />
			<path id="Vector" d="M19.7418 14.244C19.9405 14.3768 20.1259 14.5293 20.2982 14.7016C20.4705 14.8739 20.6231 15.0593 20.7558 15.258C20.8886 15.4567 21.0017 15.6686 21.095 15.8936C21.1882 16.1187 21.2582 16.3484 21.305 16.5828C21.3517 16.8172 21.3751 17.0562 21.3752 17.2998C21.3752 17.3586 21.3807 17.4162 21.3918 17.4728C21.4032 17.531 21.4205 17.5881 21.4437 17.644C21.4665 17.6992 21.4942 17.7511 21.5267 17.7997C21.5593 17.8484 21.5966 17.8938 21.6388 17.936C21.681 17.9782 21.7264 18.0156 21.7751 18.0481C21.8237 18.0806 21.8756 18.1083 21.9308 18.1311C21.9859 18.1539 22.0422 18.1711 22.0996 18.1825C22.157 18.1939 22.2155 18.1996 22.2752 18.1996C22.3349 18.1996 22.3934 18.1939 22.4508 18.1825C22.5082 18.1711 22.5645 18.1539 22.6196 18.1311C22.6747 18.1083 22.7266 18.0806 22.7753 18.0481C22.824 18.0156 22.8694 17.9782 22.9116 17.936C22.9538 17.8938 22.9911 17.8484 23.0236 17.7997C23.0562 17.7511 23.0838 17.6992 23.1067 17.644C23.1295 17.5889 23.1467 17.5326 23.1581 17.4752C23.1695 17.4178 23.1752 17.3593 23.1752 17.2996C23.1751 16.9359 23.1401 16.5791 23.0702 16.2293C23.0007 15.8809 22.8966 15.5393 22.7579 15.2047C22.6189 14.8693 22.4505 14.5537 22.2527 14.2577C22.0549 13.9617 21.8277 13.6854 21.571 13.4288C21.3144 13.1721 21.0381 12.9449 20.7421 12.7471C20.4461 12.5493 20.1305 12.3809 19.7951 12.2419C19.4598 12.103 19.1176 11.9987 18.7685 11.9292C18.4194 11.8596 18.0633 11.8248 17.7004 11.8246C17.6399 11.8246 17.5807 11.8305 17.5226 11.8421C17.4659 11.8536 17.4103 11.8705 17.3558 11.8931C17.3007 11.916 17.2488 11.9436 17.2001 11.9761C17.1514 12.0087 17.106 12.046 17.0638 12.0882C17.0216 12.1304 16.9842 12.1758 16.9517 12.2245C16.9192 12.2732 16.8915 12.3251 16.8687 12.3802C16.8459 12.4353 16.8287 12.4916 16.8173 12.549C16.8059 12.6064 16.8002 12.6649 16.8002 12.7246C16.8002 12.7843 16.8059 12.8428 16.8173 12.9002C16.8287 12.9576 16.8459 13.0139 16.8687 13.069C16.8915 13.1242 16.9192 13.1761 16.9517 13.2247C16.9842 13.2734 17.0216 13.3188 17.0638 13.361C17.106 13.4032 17.1514 13.4406 17.2001 13.4731C17.2488 13.5056 17.3006 13.5333 17.3558 13.5561C17.4109 13.5789 17.4672 13.5961 17.5246 13.6075C17.582 13.6189 17.6405 13.6246 17.7002 13.6246C17.9429 13.6247 18.181 13.648 18.4146 13.6944C18.6498 13.7411 18.8803 13.8112 19.1062 13.9048C19.3312 13.9981 19.5431 14.1112 19.7418 14.244ZM20.5811 14.4187C19.817 13.6546 18.7808 13.2251 17.7002 13.2246C17.5676 13.2246 17.4404 13.1719 17.3466 13.0782C17.2529 12.9844 17.2002 12.8572 17.2002 12.7246C17.2002 12.592 17.2529 12.4648 17.3466 12.3711C17.4404 12.2773 17.5676 12.2246 17.7002 12.2246C19.046 12.2251 20.3365 12.76 21.2882 13.7116C22.2398 14.6633 22.7747 15.9538 22.7752 17.2996C22.7752 17.4322 22.7225 17.5594 22.6287 17.6532C22.535 17.7469 22.4078 17.7996 22.2752 17.7996C22.1426 17.7996 22.0154 17.7469 21.9216 17.6532C21.8279 17.5594 21.7752 17.4322 21.7752 17.2996C21.7747 16.219 21.3452 15.1828 20.5811 14.4187Z" fill="rgb(255,255,255)" fill-rule="evenodd" />
			<path id="Vector" d="M17.7002 9.7998C19.6887 9.80192 21.5951 10.5928 23.0012 11.9988C24.4072 13.4049 25.1981 15.3113 25.2002 17.2998C25.2002 17.4324 25.2529 17.5596 25.3466 17.6534C25.4404 17.7471 25.5676 17.7998 25.7002 17.7998C25.8328 17.7998 25.96 17.7471 26.0537 17.6534C26.1475 17.5596 26.2002 17.4324 26.2002 17.2998C26.1975 15.0463 25.3012 12.8858 23.7077 11.2923C22.1142 9.69883 19.9537 8.80245 17.7002 8.7998C17.5676 8.7998 17.4404 8.85248 17.3466 8.94625C17.2529 9.04002 17.2002 9.1672 17.2002 9.2998C17.2002 9.43241 17.2529 9.55959 17.3466 9.65336C17.4404 9.74713 17.5676 9.7998 17.7002 9.7998Z" fill="rgb(255,255,255)" fill-rule="nonzero" />
			<path id="Vector" d="M21.6435 11.3977C22.0273 11.6542 22.3855 11.9489 22.7183 12.2817C23.0511 12.6145 23.3458 12.9727 23.6023 13.3565C23.8589 13.7403 24.0774 14.1495 24.2577 14.5842C24.438 15.0189 24.5734 15.4627 24.6638 15.9154C24.7542 16.368 24.7997 16.8296 24.8002 17.3002C24.8002 17.3579 24.8056 17.4145 24.8163 17.4701C24.8277 17.5293 24.8451 17.5874 24.8687 17.6442C24.8915 17.6994 24.9192 17.7512 24.9517 17.7999C24.9842 17.8486 25.0216 17.894 25.0638 17.9362C25.106 17.9784 25.1514 18.0158 25.2001 18.0483C25.2488 18.0808 25.3007 18.1085 25.3558 18.1313C25.4109 18.1541 25.4671 18.1712 25.5245 18.1827C25.5819 18.1941 25.6405 18.1998 25.7002 18.1998C25.7599 18.1998 25.8184 18.1941 25.8758 18.1827C25.9332 18.1713 25.9895 18.1541 26.0446 18.1313C26.0997 18.1085 26.1516 18.0808 26.2003 18.0483C26.249 18.0158 26.2944 17.9784 26.3366 17.9362C26.3788 17.894 26.4161 17.8486 26.4487 17.7999C26.4812 17.7512 26.5089 17.6994 26.5317 17.6442C26.5545 17.5891 26.5716 17.5328 26.5831 17.4754C26.5945 17.418 26.6002 17.3595 26.6002 17.2998C26.5995 16.7076 26.5421 16.1269 26.4279 15.5575C26.3145 14.9922 26.1452 14.4381 25.92 13.8953C25.6939 13.3504 25.4201 12.8375 25.0985 12.3565C24.7769 11.8756 24.4076 11.4266 23.9905 11.0095C23.5734 10.5924 23.1244 10.223 22.6434 9.90145C22.1625 9.57989 21.6496 9.30608 21.1047 9.08004C20.5599 8.85398 20.0038 8.68427 19.4365 8.5709C18.8691 8.45753 18.2905 8.4005 17.7007 8.39981C17.6388 8.39981 17.5781 8.40591 17.5188 8.41813C17.4633 8.42953 17.409 8.44626 17.3558 8.46831C17.3007 8.49115 17.2488 8.51882 17.2001 8.55134C17.1514 8.58385 17.106 8.62121 17.0638 8.66341C17.0216 8.70561 16.9842 8.75104 16.9517 8.7997C16.9192 8.84836 16.8915 8.90026 16.8687 8.95539C16.8459 9.01052 16.8287 9.06679 16.8173 9.1242C16.8059 9.1816 16.8002 9.24013 16.8002 9.2998C16.8002 9.35948 16.8059 9.41801 16.8173 9.47541C16.8287 9.53282 16.8459 9.58909 16.8687 9.64422C16.8915 9.69935 16.9192 9.75125 16.9517 9.79991C16.9842 9.84858 17.0216 9.89401 17.0638 9.9362C17.106 9.9784 17.1514 10.0158 17.2001 10.0483C17.2488 10.0808 17.3006 10.1085 17.3558 10.1313C17.4109 10.1541 17.4672 10.1713 17.5246 10.1827C17.582 10.1941 17.6405 10.1998 17.7002 10.1998C18.1688 10.2003 18.6286 10.2454 19.0794 10.3351C19.5339 10.4255 19.9794 10.5613 20.4158 10.7423C20.8505 10.9226 21.2598 11.1411 21.6435 11.3977ZM23.0012 11.9988C21.5951 10.5928 19.6887 9.80192 17.7002 9.7998C17.5676 9.7998 17.4404 9.74713 17.3466 9.65336C17.2529 9.55959 17.2002 9.43241 17.2002 9.2998C17.2002 9.1672 17.2529 9.04002 17.3466 8.94625C17.4404 8.85248 17.5676 8.7998 17.7002 8.7998C19.9537 8.80245 22.1142 9.69883 23.7077 11.2923C25.3012 12.8858 26.1975 15.0463 26.2002 17.2998C26.2002 17.4324 26.1475 17.5596 26.0537 17.6534C25.96 17.7471 25.8328 17.7998 25.7002 17.7998C25.5676 17.7998 25.4404 17.7471 25.3466 17.6534C25.2529 17.5596 25.2002 17.4324 25.2002 17.2998C25.1981 15.3113 24.4072 13.4049 23.0012 11.9988Z" fill="rgb(255,255,255)" fill-rule="evenodd" />
		</g>
	</g>
</svg>
