<svg viewBox="0 0 25 24" xmlns="http://www.w3.org/2000/svg" xmlns:xlink="http://www.w3.org/1999/xlink" width="25.000000" height="24.000000" fill="none">
	<rect id="measure-tape 1" width="25.000000" height="24.000000" x="0.000000" y="0.000000" fill="rgb(255,255,255)" fill-opacity="0" />
	<g id="Group">
		<path id="Vector" d="M12.5 12.0008L12.5 8.47136C12.5 7.12129 11.8284 5.86195 10.6088 4.92534C8.18564 3.06435 4.31539 3.06355 1.89118 4.92534C0.671618 5.86195 0 7.12129 0 8.47136L0 14.1184C0 17.6215 2.96868 20.4714 6.61765 20.4714L25 20.4714L25 12.0008L12.5 12.0008ZM6.25 4.94195C8.88539 4.94195 11.0294 6.52524 11.0294 8.47136L11.0294 12.0008L6.25 12.0008C3.61461 12.0008 1.47059 10.4175 1.47059 8.47136C1.47059 6.52524 3.61461 4.94195 6.25 4.94195ZM1.47059 14.1184L1.47059 11.6613C2.63054 12.7438 4.2352 13.3289 5.8823 13.4038L5.8823 13.4125L19.8529 13.4125L19.8529 19.0596L17.647 19.0596L17.647 16.9419L16.1764 16.9419L16.1764 19.0596L13.9705 19.0596L13.9705 16.236L12.5 16.236L12.5 19.0596L10.2941 19.0596L10.2941 16.9419L8.82348 16.9419L8.82348 19.0596L6.6176 19.0596C3.77956 19.0596 1.47059 16.843 1.47059 14.1184ZM23.5294 19.0596L21.3235 19.0596L21.3235 13.4125L23.5294 13.4125L23.5294 19.0596Z" fill="rgb(255,255,255)" fill-rule="nonzero" />
		<path id="Vector" d="M3.97155 9.98359C5.25508 10.7904 7.24405 10.7912 8.52891 9.98359C9.18356 9.57206 9.55905 9.02086 9.55905 8.47126C9.55905 7.92166 9.18356 7.37046 8.52891 6.95893C7.24538 6.15211 5.25641 6.15131 3.97155 6.95893C3.3169 7.37046 2.94141 7.92166 2.94141 8.47126C2.94141 9.02086 3.3169 9.57206 3.97155 9.98359ZM6.25023 7.76538C7.3365 7.76538 7.97915 8.25263 8.08077 8.47126C7.97915 8.6899 7.3365 9.17715 6.25023 9.17715C5.16396 9.17715 4.52126 8.6899 4.41969 8.47126C4.52126 8.25263 5.16396 7.76538 6.25023 7.76538Z" fill="rgb(255,255,255)" fill-rule="nonzero" />
	</g>
</svg>
