<svg viewBox="0 0 140 108" xmlns="http://www.w3.org/2000/svg" xmlns:xlink="http://www.w3.org/1999/xlink" width="140.000000" height="108.000000" fill="none">
	<rect id="Frame" width="140.000000" height="108.000000" x="0.000000" y="0.000000" fill="rgb(255,255,255)" fill-opacity="0" />
	<g id="Group">
		<g id="Group">
			<g id="Group">
				<path id="Vector" d="M72.18 39.7233C72.18 36.2691 71.8357 33.1604 71.3767 31.0879L68.3931 31.0879C67.9341 33.1604 67.5898 36.2691 67.5898 39.7233C67.5898 43.2926 67.9341 46.4013 68.3931 48.589L71.262 48.589C71.9505 46.5165 72.18 43.2926 72.18 39.7233Z" fill="rgb(237,28,36)" fill-rule="evenodd" />
				<path id="Vector" d="M78.7217 14.0469C77.2299 9.44136 74.361 5.64179 71.4921 1.95736C71.1479 1.38166 70.5741 0.80597 70.0004 0C69.3118 0.80597 68.8528 1.38166 68.3938 1.95736C65.5249 5.75693 62.7708 9.5565 61.1643 14.0469C59.3282 19.5736 61.1643 23.1429 66.7872 24.7548C69.5413 25.5608 69.5413 25.5608 69.5413 28.4392C69.5413 28.4392 69.5413 28.4392 69.5413 28.5544C69.1971 28.8998 68.9676 29.5906 68.6233 30.5117L71.2626 30.5117C71.0331 29.5906 70.6889 28.8998 70.4594 28.5544C70.4594 28.5544 70.4594 28.5544 70.4594 28.4392C70.4594 25.5608 70.4594 25.5608 73.2135 24.7548C78.7217 23.258 80.6725 19.5736 78.7217 14.0469Z" fill="rgb(237,28,36)" fill-rule="evenodd" />
				<path id="Vector" d="M68.7373 49.2793C69.0816 50.5458 69.5406 51.2367 69.9996 51.2367C70.4586 51.2367 70.9176 50.5458 71.2619 49.2793L68.7373 49.2793Z" fill="rgb(237,28,36)" fill-rule="evenodd" />
			</g>
			<g id="Group">
				<path id="Vector" d="M53.2464 37.6501C53.2464 34.6565 53.0169 32.1235 52.5578 30.2812L50.0332 30.2812C49.5742 32.0083 49.3447 34.6565 49.3447 37.6501C49.3447 40.6437 49.5742 43.4071 50.0332 45.1341L52.4431 45.1341C53.0169 43.4071 53.2464 40.6437 53.2464 37.6501Z" fill="rgb(240,78,55)" fill-rule="evenodd" />
				<path id="Vector" d="M58.8691 15.7742C57.6068 11.8595 55.197 8.63562 52.7872 5.41174C52.4429 4.95119 51.9839 4.3755 51.4101 3.7998C50.8363 4.49064 50.4921 4.95119 50.0331 5.41174C47.6232 8.63562 45.2134 11.8595 43.9511 15.7742C42.3445 20.4949 43.9511 23.6036 48.7708 24.8702C51.0658 25.561 51.0658 25.561 51.0658 27.9789C50.8363 28.2092 50.4921 28.7849 50.3773 29.5908L52.5577 29.5908C52.3281 28.7849 52.0986 28.2092 51.8691 27.9789C51.8691 25.561 51.8691 25.561 54.1642 24.8702C58.8691 23.6036 60.4757 20.4949 58.8691 15.7742Z" fill="rgb(240,78,55)" fill-rule="evenodd" />
				<path id="Vector" d="M50.2627 45.71C50.607 46.7462 50.9512 47.3219 51.2955 47.3219C51.6397 47.3219 52.0988 46.7462 52.3283 45.71L50.2627 45.71Z" fill="rgb(240,78,55)" fill-rule="evenodd" />
			</g>
			<g id="Group">
				<path id="Vector" d="M36.9509 35.9234C36.9509 33.3904 36.7214 31.0876 36.3771 29.5908L34.1968 29.5908C33.8526 31.0876 33.623 33.3904 33.623 35.9234C33.623 38.5716 33.8526 40.8744 34.1968 42.3712L36.2624 42.3712C36.7214 40.8744 36.9509 38.5716 36.9509 35.9234Z" fill="rgb(247,148,29)" fill-rule="evenodd" />
				<path id="Vector" d="M41.7702 17.1555C40.6227 13.8165 38.5571 11.0532 36.4915 8.28987C36.1473 7.82931 35.803 7.4839 35.344 6.9082C34.885 7.4839 34.5407 7.94445 34.1964 8.28987C32.1309 11.0532 30.0653 13.8165 28.9178 17.1555C27.5407 21.1854 28.9178 23.8336 33.0489 24.985C35.1145 25.5607 35.1145 25.5607 34.9997 27.6332C34.7702 27.8634 34.5407 28.324 34.426 29.0148L36.3768 29.0148C36.1473 28.324 36.0325 27.8634 35.6883 27.6332C35.6883 25.5607 35.6883 25.5607 37.6391 24.985C41.7702 23.8336 43.1473 21.1854 41.7702 17.1555Z" fill="rgb(247,148,29)" fill-rule="evenodd" />
				<path id="Vector" d="M34.4258 42.9463C34.6553 43.8674 34.9995 44.328 35.3438 44.328C35.6881 44.328 36.0323 43.7523 36.2618 42.9463L34.4258 42.9463Z" fill="rgb(247,148,29)" fill-rule="evenodd" />
			</g>
			<g id="Group">
				<path id="Vector" d="M106.262 35.9234C106.262 33.3904 106.033 31.0876 105.689 29.5908L103.508 29.5908C103.164 31.0876 102.935 33.3904 102.935 35.9234C102.935 38.5716 103.164 40.8744 103.508 42.3712L105.574 42.3712C106.033 40.8744 106.262 38.5716 106.262 35.9234Z" fill="rgb(146,39,143)" fill-rule="evenodd" />
				<path id="Vector" d="M111.082 17.1555C109.934 13.8165 107.869 11.0532 105.803 8.28987C105.459 7.82931 105.115 7.4839 104.656 6.9082C104.196 7.4839 103.852 7.94445 103.508 8.28987C101.442 11.0532 99.3768 13.8165 98.2293 17.1555C96.8522 21.1854 98.2293 23.8336 102.36 24.985C104.426 25.5607 104.426 25.5607 104.311 27.6332C104.082 27.8634 103.852 28.324 103.737 29.0148L105.574 29.0148C105.344 28.324 105.229 27.8634 105 27.6332C105 25.5607 105 25.5607 106.951 24.985C111.082 23.8336 112.459 21.1854 111.082 17.1555Z" fill="rgb(146,39,143)" fill-rule="evenodd" />
				<path id="Vector" d="M103.737 42.9463C103.967 43.8674 104.311 44.328 104.655 44.328C105 44.328 105.344 43.7523 105.573 42.9463L103.737 42.9463Z" fill="rgb(146,39,143)" fill-rule="evenodd" />
			</g>
			<g id="Group">
				<path id="Vector" d="M120.032 34.4262C120.032 32.2385 119.803 30.2812 119.573 29.0146L117.737 29.0146C117.393 30.2812 117.278 32.2385 117.278 34.4262C117.278 36.6138 117.508 38.6863 117.737 39.9528L119.573 39.9528C119.803 38.6863 120.032 36.7289 120.032 34.4262Z" fill="rgb(0,91,170)" fill-rule="evenodd" />
				<path id="Vector" d="M124.164 18.4223C123.246 15.5438 121.41 13.1259 119.688 10.8232C119.459 10.4777 119.115 10.1323 118.656 9.55664C118.196 10.0172 117.967 10.3626 117.623 10.8232C115.787 13.1259 114.065 15.5438 113.147 18.4223C112 21.8765 113.147 24.1792 116.705 25.1003C118.426 25.5609 118.426 25.5609 118.426 27.4031C118.196 27.6334 118.082 27.9788 117.852 28.5545L119.459 28.5545C119.344 27.9788 119.115 27.5183 118.885 27.4031C118.885 25.5609 118.885 25.5609 120.606 25.1003C124.049 24.0641 125.311 21.8765 124.164 18.4223Z" fill="rgb(0,91,170)" fill-rule="evenodd" />
				<path id="Vector" d="M117.853 40.4141C118.082 41.22 118.312 41.6806 118.656 41.6806C119 41.6806 119.23 41.22 119.459 40.4141L117.853 40.4141Z" fill="rgb(0,91,170)" fill-rule="evenodd" />
			</g>
			<g id="Group">
				<path id="Vector" d="M22.8361 34.4262C22.8361 32.2385 22.6066 30.2812 22.3771 29.0146L20.541 29.0146C20.1968 30.2812 20.082 32.2385 20.082 34.4262C20.082 36.6138 20.3115 38.6863 20.541 39.9528L22.3771 39.9528C22.6066 38.6863 22.8361 36.7289 22.8361 34.4262Z" fill="rgb(141,198,63)" fill-rule="evenodd" />
				<path id="Vector" d="M26.8527 18.4223C25.9346 15.5438 24.0986 13.1259 22.3772 10.8232C22.033 10.3626 21.8035 10.0172 21.3445 9.55664C21.0002 10.0172 20.6559 10.3626 20.4264 10.8232C18.5904 13.1259 16.869 15.5438 15.951 18.4223C14.8035 21.8765 15.951 24.1792 19.5084 25.1003C21.2297 25.5609 21.2297 25.5609 21.2297 27.4031C21.0002 27.6334 20.8854 27.9788 20.6559 28.5545L22.2625 28.5545C22.1477 27.9788 21.9182 27.5183 21.6887 27.4031C21.6887 25.5609 21.6887 25.5609 23.41 25.1003C26.8527 24.0641 28.0002 21.8765 26.8527 18.4223Z" fill="rgb(141,198,63)" fill-rule="evenodd" />
				<path id="Vector" d="M20.541 40.4141C20.7705 41.22 21 41.6806 21.3443 41.6806C21.6886 41.6806 21.9181 41.22 22.1476 40.4141L20.541 40.4141Z" fill="rgb(141,198,63)" fill-rule="evenodd" />
			</g>
			<g id="Group">
				<path id="Vector" d="M90.5413 37.6501C90.5413 34.6565 90.3118 32.1235 89.8528 30.2812L87.3282 30.2812C86.8692 32.0083 86.6396 34.6565 86.6396 37.6501C86.6396 40.6437 86.8692 43.4071 87.3282 45.1341L89.738 45.1341C90.197 43.4071 90.5413 40.6437 90.5413 37.6501Z" fill="rgb(237,20,91)" fill-rule="evenodd" />
				<path id="Vector" d="M96.0488 15.7742C94.7865 11.8595 92.3767 8.63562 89.9669 5.41174C89.6226 4.95119 89.1636 4.3755 88.5898 3.7998C88.016 4.49064 87.6718 4.95119 87.2128 5.41174C84.8029 8.63562 82.3931 11.8595 81.1308 15.7742C79.5242 20.4949 81.1308 23.6036 85.9505 24.8702C88.2455 25.561 88.2455 25.561 88.2455 27.9789C88.016 28.2092 87.7865 28.7849 87.557 29.5908L89.7373 29.5908C89.5078 28.7849 89.2783 28.2092 89.0488 27.9789C89.0488 25.561 89.0488 25.561 91.3439 24.8702C96.0488 23.6036 97.6554 20.4949 96.0488 15.7742Z" fill="rgb(237,20,91)" fill-rule="evenodd" />
				<path id="Vector" d="M87.5576 45.71C87.9019 46.7462 88.2461 47.3219 88.5904 47.3219C88.9347 47.3219 89.3937 46.7462 89.6232 45.71L87.5576 45.71Z" fill="rgb(237,20,91)" fill-rule="evenodd" />
			</g>
		</g>
		<g id="Group">
			<path id="Vector" d="M60.2454 88.541L58.5241 88.541C58.1799 88.541 57.9504 88.7713 57.7208 89.1167L54.9667 94.8736C54.852 95.1039 54.852 95.1039 54.7372 95.1039C54.6225 95.1039 54.6225 94.9888 54.5077 94.8736L51.7536 89.1167C51.6389 88.7713 51.2946 88.541 50.9504 88.541L49.3438 88.541C49.1143 88.541 48.9995 88.6562 48.8848 88.7713C48.77 88.8864 48.6553 89.1167 48.6553 89.2318L48.6553 103.279C48.6553 103.394 48.6553 103.509 48.77 103.509C48.8848 103.509 48.8848 103.624 48.9995 103.624L51.4094 103.624C51.5241 103.624 51.5241 103.624 51.6389 103.509C51.6389 103.394 51.7536 103.279 51.7536 103.279L51.7536 94.8736C51.7536 94.7585 51.7536 94.7585 51.8684 94.7585C51.8684 94.7585 51.9831 94.7585 51.9831 94.8736L53.5897 98.2127C53.7045 98.4429 53.934 98.5581 54.1635 98.5581L55.6553 98.5581C55.8848 98.5581 56.1143 98.4429 56.229 98.2127L57.8356 94.8736C57.8356 94.7585 57.9504 94.7585 57.9504 94.7585C58.0651 94.7585 58.0651 94.7585 58.0651 94.8736L58.0651 103.279C58.0651 103.394 58.0651 103.509 58.1799 103.509C58.1799 103.624 58.2946 103.624 58.4094 103.624L60.8192 103.624C60.934 103.624 60.934 103.624 61.0487 103.509C61.1635 103.509 61.1635 103.394 61.1635 103.279L61.1635 89.2318C61.1635 89.0016 61.0487 88.8864 60.934 88.7713C60.5897 88.541 60.4749 88.541 60.2454 88.541Z" fill="rgb(0,0,0)" fill-rule="nonzero" />
			<path id="Vector" d="M72.2956 89.8083C71.8365 89.2326 71.2628 88.8872 70.5742 88.6569C69.8857 88.4267 69.1972 88.3115 68.5087 88.3115C67.7054 88.3115 67.0169 88.4267 66.4431 88.6569C65.7546 88.8872 65.1808 89.2326 64.7218 89.8083C64.2628 90.384 63.8038 90.9597 63.5743 91.7657C63.3447 92.5717 63.1152 93.6079 63.1152 94.7593L63.1152 97.1772C63.1152 98.3286 63.23 99.3648 63.5743 100.171C63.8038 100.977 64.2628 101.668 64.7218 102.128C65.1808 102.704 65.7546 103.049 66.4431 103.28C67.1316 103.51 67.8202 103.625 68.5087 103.625C69.312 103.625 70.0005 103.51 70.5742 103.28C71.2628 103.049 71.8365 102.704 72.2956 102.128C72.7546 101.552 73.2136 100.977 73.4431 100.171C73.6726 99.3648 73.9021 98.3286 73.9021 97.1772L73.9021 94.7593C73.9021 93.6079 73.7874 92.5717 73.4431 91.7657C73.2136 91.0749 72.7546 90.384 72.2956 89.8083ZM70.8038 97.2923C70.8038 98.5589 70.5742 99.3648 70.23 99.9405C69.8857 100.516 69.312 100.746 68.5087 100.746C67.7054 100.746 67.1316 100.516 66.7874 99.9405C66.4431 99.3648 66.2136 98.5589 66.2136 97.2923L66.2136 94.8744C66.2136 93.6079 66.4431 92.8019 66.7874 92.2262C67.1316 91.6505 67.7054 91.4203 68.5087 91.4203C69.312 91.4203 69.8857 91.6505 70.23 92.2262C70.5742 92.8019 70.8038 93.6079 70.8038 94.8744L70.8038 97.2923Z" fill="rgb(0,0,0)" fill-rule="nonzero" />
			<path id="Vector" d="M86.4099 88.541L84.0001 88.541C83.8853 88.541 83.7706 88.541 83.7706 88.6562C83.7706 88.7713 83.7706 88.7713 83.7706 88.8864L83.7706 94.2979L79.1804 94.2979L79.1804 88.8864C79.1804 88.7713 79.1804 88.6562 79.0656 88.6562C78.9509 88.541 78.9509 88.541 78.8361 88.541L76.4263 88.541C76.3115 88.541 76.1968 88.541 76.1968 88.6562C76.082 88.7713 76.082 88.7713 76.082 88.8864L76.082 103.164C76.082 103.279 76.082 103.394 76.1968 103.394C76.3115 103.509 76.3115 103.509 76.4263 103.509L78.8361 103.509C78.9509 103.509 79.0656 103.509 79.0656 103.394C79.1804 103.279 79.1804 103.164 79.1804 103.164L79.1804 97.2915L83.7706 97.2915L83.7706 103.164C83.7706 103.279 83.7705 103.394 83.8853 103.394C84.0001 103.509 84.0001 103.509 84.1148 103.509L86.5247 103.509C86.6394 103.509 86.7542 103.509 86.7542 103.394C86.8689 103.279 86.8689 103.164 86.8689 103.164L86.8689 88.8864C86.8689 88.7713 86.8689 88.6562 86.7542 88.6562C86.6394 88.541 86.5247 88.541 86.4099 88.541Z" fill="rgb(0,0,0)" fill-rule="nonzero" />
			<path id="Vector" d="M97.8849 88.541L88.9341 88.541C88.8194 88.541 88.7046 88.541 88.7046 88.6562C88.5899 88.7713 88.5898 88.7713 88.5898 88.8864L88.5898 90.9589C88.5898 91.0741 88.5899 91.1892 88.7046 91.1892C88.8194 91.3043 88.8194 91.3043 88.9341 91.3043L91.9177 91.3043L91.9177 103.048C91.9177 103.164 91.9177 103.279 92.0325 103.279C92.1472 103.394 92.1472 103.394 92.262 103.394L94.6718 103.394C94.7866 103.394 94.9013 103.394 94.9013 103.279C95.0161 103.164 95.0161 103.048 95.0161 103.048L95.0161 91.4195L97.9997 91.4195C98.1144 91.4195 98.2292 91.4195 98.2292 91.3043C98.3439 91.1892 98.3439 91.1892 98.3439 91.0741L98.3439 89.0016C98.3439 88.8864 98.3439 88.7713 98.2292 88.7713C98.1144 88.541 97.9997 88.541 97.8849 88.541Z" fill="rgb(0,0,0)" fill-rule="nonzero" />
			<path id="Vector" d="M108.328 95.219C107.869 94.8736 107.18 94.6434 106.492 94.5282C105.803 94.4131 105.115 94.2979 104.311 94.2979C104.082 94.2979 103.852 94.2979 103.738 94.2979C103.508 94.2979 103.279 94.2979 103.164 94.2979L103.164 88.8864C103.164 88.7713 103.164 88.6562 103.049 88.6562C102.934 88.541 102.934 88.541 102.82 88.541L100.41 88.541C100.295 88.541 100.18 88.541 100.18 88.6562C100.065 88.7713 100.065 88.8864 100.065 88.8864L100.065 102.127C100.065 102.588 100.18 102.933 100.295 103.048C100.41 103.279 100.754 103.394 101.098 103.394C101.328 103.394 101.442 103.509 101.787 103.509C102.016 103.509 102.361 103.509 102.59 103.624C102.934 103.624 103.164 103.624 103.508 103.624C103.852 103.624 104.082 103.624 104.426 103.624C105.229 103.624 105.918 103.509 106.606 103.394C107.295 103.279 107.869 103.048 108.442 102.703C108.901 102.358 109.361 101.897 109.705 101.206C110.049 100.631 110.164 99.8246 110.164 98.9035L110.164 98.7884C110.164 97.8672 110.049 97.0613 109.705 96.4856C109.246 96.025 108.901 95.5645 108.328 95.219ZM107.065 99.0186C107.065 99.364 107.065 99.5943 106.951 99.8246C106.836 100.055 106.721 100.285 106.492 100.4C106.262 100.515 106.033 100.631 105.574 100.746C105.229 100.861 104.77 100.861 104.197 100.861C103.967 100.861 103.852 100.861 103.738 100.861C103.623 100.861 103.508 100.861 103.508 100.861C103.393 100.861 103.393 100.861 103.279 100.861C103.279 100.861 103.164 100.861 103.049 100.861L103.049 97.1764C103.164 97.1764 103.164 97.1764 103.279 97.1764C103.279 97.1764 103.393 97.1764 103.508 97.1764C103.623 97.1764 103.623 97.1764 103.738 97.1764C103.852 97.1764 103.967 97.1764 104.197 97.1764C104.77 97.1764 105.229 97.1764 105.574 97.2915C105.918 97.4067 106.262 97.4067 106.492 97.637C106.721 97.7521 106.836 97.9824 106.951 98.2127C107.065 98.4429 107.065 98.6732 107.065 99.0186Z" fill="rgb(0,0,0)" fill-rule="nonzero" />
			<path id="Vector" d="M114.066 88.541L111.656 88.541C111.426 88.541 111.312 88.6562 111.312 88.8864L111.312 103.164C111.312 103.279 111.312 103.394 111.426 103.394C111.541 103.509 111.541 103.509 111.656 103.509L114.066 103.509C114.18 103.509 114.295 103.509 114.295 103.394C114.41 103.279 114.41 103.164 114.41 103.164L114.41 88.8864C114.41 88.6562 114.295 88.541 114.066 88.541Z" fill="rgb(0,0,0)" fill-rule="nonzero" />
			<path id="Vector" d="M42.3446 88.3115C38.9019 88.3115 37.6396 90.1537 37.6396 96.0258C37.6396 101.898 38.9019 103.74 42.5741 103.74C43.7216 103.74 44.9839 103.625 46.1315 103.28C46.2462 103.28 46.2462 103.049 46.2462 102.934L45.9019 100.516C45.9019 100.401 45.7872 100.286 45.6724 100.401C44.8692 100.746 43.7216 100.977 42.5741 100.977C40.738 100.977 40.5085 100.286 40.5085 96.8318L46.4757 96.8318C46.5905 96.8318 46.7052 96.7166 46.7052 96.4864C46.7052 89.8083 45.6724 88.3115 42.3446 88.3115ZM40.5085 94.1836C40.6233 91.5354 40.738 90.9597 42.2298 90.9597C43.7216 90.9597 43.8364 91.4203 43.9511 94.1836L40.5085 94.1836Z" fill="rgb(0,0,0)" fill-rule="nonzero" />
			<path id="Vector" d="M30.5248 88.3115C29.7215 88.3115 28.9182 88.4267 28.1149 88.5418C27.3117 88.6569 26.6231 88.7721 26.0494 89.0024C25.7051 89.1175 25.5903 89.2326 25.5903 89.2326C25.5903 89.3478 25.4756 89.4629 25.4756 89.5781L25.4756 107.655C25.4756 107.77 25.4756 107.885 25.5903 107.885C25.7051 108 25.7051 108 25.8198 108L28.3444 108C28.3444 108 28.4592 108 28.4592 107.885C28.5739 107.77 28.5739 107.77 28.5739 107.655L28.5739 102.934L28.8035 102.934C29.1477 102.934 29.3772 103.049 29.7215 103.049C30.0657 103.049 30.2953 103.049 30.5248 103.049C32.2461 103.049 33.5084 102.474 34.4264 101.322C35.2297 100.171 35.6887 98.5589 35.6887 96.6015L35.6887 94.529C35.6887 92.4565 35.2297 90.8446 34.3116 89.8083C33.5084 88.7721 32.2461 88.3115 30.5248 88.3115ZM32.5903 96.7166C32.5903 97.1772 32.5903 97.6377 32.4756 97.9832C32.3608 98.3286 32.3608 98.7891 32.1313 99.0194C32.0166 99.3648 31.7871 99.5951 31.5576 99.7103C31.328 99.9405 30.9838 99.9405 30.5248 99.9405C30.2953 99.9405 29.951 99.9405 29.6067 99.9405C29.2625 99.9405 29.033 99.8254 28.6887 99.8254L28.5739 99.8254L28.5739 91.5354L28.6887 91.5354C28.9182 91.5354 29.1477 91.4203 29.492 91.4203C29.8362 91.4203 30.1805 91.4203 30.5248 91.4203C30.9838 91.4203 31.328 91.5354 31.5576 91.6505C31.7871 91.7657 32.0166 92.1111 32.1313 92.3414C32.2461 92.6868 32.3608 93.0322 32.4756 93.3776C32.4756 93.723 32.5903 94.1836 32.5903 94.6441L32.5903 96.7166Z" fill="rgb(0,0,0)" fill-rule="nonzero" />
			<path id="Vector" d="M11.8197 70.58L17.6721 59.4115C17.6721 59.2964 17.7869 59.2964 17.7869 59.1813C17.7869 59.0661 17.7869 58.951 17.6721 58.951C17.5574 58.8358 17.4426 58.8358 17.3279 58.8358L13.082 58.8358C12.9672 58.8358 12.7377 58.951 12.623 59.0661C12.5082 59.1813 12.3934 59.2964 12.2787 59.5267L9.18033 65.7442L5.73771 59.4115C5.62295 59.2964 5.5082 59.1813 5.39344 58.951C5.27869 58.8358 5.16393 58.7207 5.04918 58.7207L0.459016 58.7207C0.344262 58.7207 0.229508 58.7207 0.114754 58.8358C0 59.0661 0 59.0661 0 59.1813C0 59.1813 0 59.2964 0 59.4115L6.08197 70.2346L0.114754 81.6333C0.114754 81.7484 0.114754 81.7484 0.114754 81.8636C0.114754 82.0938 0.229508 82.3241 0.573771 82.3241L4.81967 82.3241C4.93443 82.3241 5.04918 82.3241 5.16393 82.0938C5.27869 81.9787 5.39344 81.8636 5.5082 81.6333L8.83607 75.0704L12.5082 81.7484C12.623 81.8636 12.7377 82.0938 12.8525 82.0938C12.9672 82.209 13.082 82.209 13.3115 82.209L17.7869 82.209C18.0164 82.209 18.1311 82.0938 18.1311 81.8636C18.1311 81.7484 18.1311 81.6333 18.0164 81.5182L11.8197 70.58Z" fill="rgb(0,0,0)" fill-rule="nonzero" />
			<path id="Vector" d="M33.2784 60.793C32.4751 59.987 31.6718 59.4113 30.639 59.0659C29.6062 58.7205 28.5734 58.4902 27.3111 58.4902C26.1636 58.4902 25.0161 58.7205 23.9833 59.0659C22.9505 59.4113 22.0325 59.987 21.3439 60.793C20.5406 61.599 19.9669 62.6352 19.5079 63.9017C19.0488 65.1683 18.8193 66.7802 18.8193 68.6224L18.8193 72.422C18.8193 74.2642 19.0488 75.761 19.5079 77.1427C19.9669 78.4092 20.5406 79.4455 21.3439 80.2514C22.1472 81.0574 22.9505 81.6331 23.9833 81.9785C25.0161 82.3239 26.0488 82.5542 27.3111 82.5542C28.4587 82.5542 29.6062 82.3239 30.639 81.9785C31.6718 81.6331 32.5898 81.0574 33.2784 80.2514C34.0816 79.4455 34.6554 78.4092 35.1144 77.1427C35.5734 75.8762 35.8029 74.2642 35.8029 72.422L35.8029 68.6224C35.8029 66.7802 35.5734 65.2834 35.1144 63.9017C34.5406 62.7504 33.9669 61.599 33.2784 60.793ZM30.8685 72.422C30.8685 74.3794 30.5243 75.761 29.9505 76.567C29.3767 77.373 28.4587 77.8335 27.3111 77.8335C26.1636 77.8335 25.2456 77.373 24.6718 76.567C24.098 75.761 23.8685 74.3794 23.8685 72.422L23.8685 68.6224C23.8685 66.6651 24.098 65.2834 24.6718 64.4774C25.2456 63.6715 26.1636 63.2109 27.3111 63.2109C28.4587 63.2109 29.3767 63.6715 29.9505 64.4774C30.5243 65.2834 30.8685 66.6651 30.8685 68.6224L30.8685 72.422Z" fill="rgb(0,0,0)" fill-rule="nonzero" />
			<path id="Vector" d="M71.4922 60.793C70.6889 59.987 69.8857 59.4113 68.8529 59.0659C67.8201 58.7205 66.7873 58.4902 65.525 58.4902C64.2627 58.4902 63.2299 58.7205 62.1971 59.0659C61.1644 59.4113 60.2463 59.987 59.5578 60.793C58.7545 61.599 58.1807 62.6352 57.7217 63.9017C57.2627 65.1683 57.0332 66.7802 57.0332 68.6224L57.0332 72.422C57.0332 74.2642 57.2627 75.761 57.7217 77.1427C58.1807 78.4092 58.7545 79.4455 59.5578 80.2514C60.3611 81.0574 61.1644 81.6331 62.1971 81.9785C63.2299 82.3239 64.2627 82.5542 65.525 82.5542C66.7873 82.5542 67.8201 82.3239 68.8529 81.9785C69.8857 81.6331 70.8037 81.0574 71.4922 80.2514C72.2955 79.4455 72.8693 78.4092 73.3283 77.1427C73.7873 75.8762 74.0168 74.2642 74.0168 72.422L74.0168 68.6224C74.0168 66.7802 73.7873 65.2834 73.3283 63.9017C72.8693 62.7504 72.2955 61.599 71.4922 60.793ZM69.0824 72.422C69.0824 74.3794 68.7381 75.761 68.1644 76.567C67.5906 77.373 66.6725 77.8335 65.525 77.8335C64.3775 77.8335 63.4594 77.373 62.8857 76.567C62.3119 75.761 62.0824 74.3794 62.0824 72.422L62.0824 68.6224C62.0824 66.6651 62.3119 65.2834 62.8857 64.4774C63.4594 63.6715 64.3775 63.2109 65.525 63.2109C66.6725 63.2109 67.5906 63.6715 68.1644 64.4774C68.7381 65.2834 69.0824 66.6651 69.0824 68.6224L69.0824 72.422Z" fill="rgb(0,0,0)" fill-rule="nonzero" />
			<path id="Vector" d="M101.214 78.4094C101.328 77.6034 101.443 76.7975 101.443 75.8764L101.443 59.4115C101.443 59.2964 101.443 59.0661 101.328 58.951C101.214 58.8358 101.099 58.7207 100.984 58.7207L97.3119 58.7207C97.1972 58.7207 97.0824 58.8358 96.9677 58.951C96.8529 59.0661 96.8529 59.1813 96.8529 59.4115L96.8529 75.9915C96.8529 76.2218 96.8529 76.452 96.8529 76.6823C96.8529 76.9126 96.8529 77.0277 96.7382 77.258C96.6234 77.3732 96.5087 77.4883 96.3939 77.6034C96.2791 77.7186 95.9349 77.7186 95.7054 77.7186L92.2627 77.7186L92.2627 59.4115C92.2627 59.2964 92.2627 59.0661 92.148 58.951C92.0332 58.8358 91.9185 58.7207 91.8037 58.7207L88.1316 58.7207C88.0168 58.7207 87.9021 58.8358 87.7873 58.951C87.6726 59.0661 87.6726 59.1813 87.6726 59.4115L87.6726 77.6034L84.23 77.6034C83.8857 77.6034 83.6562 77.6034 83.5414 77.4883C83.4267 77.3732 83.3119 77.258 83.1972 77.1429C83.0824 77.0277 83.0824 76.7975 83.0824 76.5672C83.0824 76.3369 83.0824 76.1066 83.0824 75.8764L83.0824 59.4115C83.0824 59.2964 83.0824 59.0661 82.9677 58.951C82.8529 58.8358 82.7382 58.7207 82.6234 58.7207L78.0332 58.7207C77.9185 58.7207 77.8037 58.8358 77.689 58.951C77.5742 59.0661 77.5742 59.1813 77.5742 59.4115L77.5742 75.9915C77.5742 76.9126 77.689 77.7186 77.8037 78.5245C77.9185 79.3305 78.2627 80.0213 78.7218 80.4819C79.1808 81.0576 79.7545 81.5181 80.5578 81.8636C81.3611 82.209 82.2791 82.3241 83.5414 82.3241L95.7054 82.3241C96.9677 82.3241 97.8857 82.209 98.689 81.8636C99.4923 81.5181 100.066 81.0576 100.525 80.4819C100.755 79.9062 101.099 79.2154 101.214 78.4094Z" fill="rgb(0,0,0)" fill-rule="nonzero" />
			<path id="Vector" d="M121.066 58.8358L118.197 58.8358C117.967 58.8358 117.738 58.951 117.508 59.0661C117.393 59.1813 117.164 59.5267 117.049 59.757L110.279 72.7676C110.164 72.8828 110.164 72.9979 110.049 72.9979C109.934 72.9979 109.934 72.8828 109.934 72.7676L109.934 59.4115C109.934 59.2964 109.82 59.0661 109.82 58.951C109.705 58.8358 109.59 58.7207 109.475 58.7207L106.147 58.7207C106.033 58.7207 105.918 58.8358 105.803 58.951C105.688 59.0661 105.688 59.1813 105.688 59.4115L105.688 81.0576C105.688 81.403 105.803 81.6333 106.033 81.8636C106.262 82.0938 106.492 82.209 106.836 82.209L109.59 82.209C109.934 82.209 110.164 82.209 110.393 81.9787C110.623 81.8636 110.852 81.6333 111.082 81.1727L117.508 68.7378C117.623 68.6226 117.738 68.5075 117.738 68.5075C117.852 68.5075 117.852 68.6226 117.852 68.7378L117.852 81.5182C117.852 81.6333 117.852 81.8636 117.967 81.9787C118.082 82.0938 118.197 82.209 118.311 82.209L121.639 82.209C121.754 82.209 121.869 82.0938 121.984 81.9787C122.098 81.8636 122.098 81.7484 122.098 81.5182L122.098 59.9872C122.098 59.6418 121.984 59.4115 121.754 59.1813C121.639 58.951 121.41 58.8358 121.066 58.8358Z" fill="rgb(0,0,0)" fill-rule="nonzero" />
			<path id="Vector" d="M133.23 58.8359C128.066 58.8359 126 61.5993 126 70.4649C126 79.4457 127.836 82.2091 133.459 82.2091C135.295 82.2091 137.246 81.9788 138.967 81.5182C139.082 81.5182 139.197 81.1728 139.082 80.9426L138.508 77.2581C138.508 77.0278 138.279 76.9127 138.164 77.0278C137.016 77.6035 135.066 77.8338 133.459 77.8338C130.705 77.8338 130.361 76.7976 130.361 71.6163L139.426 71.6163C139.541 71.6163 139.885 71.386 139.885 71.0406C140 61.1387 138.393 58.8359 133.23 58.8359ZM130.59 67.8167C130.705 63.6718 130.934 62.9809 133.23 62.9809C135.525 62.9809 135.754 63.7869 135.754 67.8167L130.59 67.8167Z" fill="rgb(0,0,0)" fill-rule="nonzero" />
			<path id="Vector" d="M38.6724 86.6992L42.8035 86.6992C42.9183 86.6992 42.9183 86.6992 43.033 86.584C43.1478 86.4689 43.1478 86.3538 43.1478 86.1235L43.1478 83.8207L43.1478 82.0937L43.4921 82.0937C43.9511 82.2088 44.4101 82.2088 44.9839 82.3239C45.4429 82.3239 45.9019 82.4391 46.2462 82.4391C49.0003 82.4391 51.0658 81.5179 52.4429 79.6757C53.8199 77.8335 54.5084 75.3005 54.5084 72.0766L54.5084 68.8527C54.5084 65.5137 53.8199 62.9806 52.3281 61.1384C50.9511 59.4113 48.8855 58.4902 46.2462 58.4902C44.9839 58.4902 43.6068 58.6054 42.4593 58.8356C41.197 59.0659 40.0494 59.2962 39.1314 59.6416C38.5576 59.7568 38.4429 59.987 38.4429 59.987C38.3281 60.1022 38.3281 60.3325 38.3281 60.5627L38.3281 81.8634L38.3281 83.9359L38.3281 86.2386C38.3281 86.3538 38.3281 86.4689 38.4429 86.584C38.4429 86.6992 38.5576 86.6992 38.6724 86.6992ZM43.1478 63.7866L43.3773 63.7866C43.7216 63.6715 44.1806 63.6715 44.6396 63.6715C45.0986 63.6715 45.6724 63.5563 46.2462 63.5563C46.9347 63.5563 47.5085 63.6715 47.8527 64.0169C48.3117 64.2472 48.656 64.7077 48.8855 65.1683C49.115 65.6288 49.3445 66.2045 49.3445 66.7802C49.4593 67.3559 49.4593 68.0467 49.4593 68.8527L49.4593 72.0766C49.4593 72.7674 49.4593 73.4583 49.3445 74.1491C49.2298 74.8399 49.115 75.4156 48.8855 75.8762C48.656 76.3367 48.3117 76.7973 47.8527 77.0275C47.3937 77.373 46.8199 77.4881 46.2462 77.4881C45.7871 77.4881 45.3281 77.4881 44.8691 77.373C44.2953 77.373 43.8363 77.2578 43.4921 77.2578L43.2626 77.2578L43.2626 63.7866L43.1478 63.7866Z" fill="rgb(0,0,0)" fill-rule="nonzero" />
		</g>
	</g>
</svg>

